<svg width="16" height="10" viewBox="0 0 16 10" fill="none" xmlns="http://www.w3.org/2000/svg">
<path d="M15.6712 8.85488C15.1012 8.99988 14.7487 8.86113 14.4325 8.38614C13.7225 7.32239 12.9387 6.30739 12.1825 5.27364C12.085 5.13989 11.9838 5.00863 11.8575 4.84238C10.9625 6.04988 10.0687 7.19988 9.23 8.39613C8.93 8.82363 8.615 9.00988 8.055 8.85863L11.42 4.34239L8.2875 0.263635C8.82625 0.158635 9.19875 0.212386 9.52875 0.694885C10.2575 1.75989 11.0612 2.77364 11.8625 3.84613C12.6687 2.77739 13.4625 1.76239 14.2125 0.707385C14.5137 0.279885 14.8375 0.117385 15.3787 0.274885C14.9687 0.818635 14.5675 1.35364 14.1637 1.88489C13.6187 2.60114 13.0837 3.32614 12.5187 4.02739C12.3175 4.27739 12.35 4.43989 12.53 4.67614C13.575 6.04989 14.6075 7.43739 15.6712 8.85488ZM0.00375001 4.26739C0.09375 3.81614 0.15375 3.35614 0.27875 2.91364C1.02875 0.234885 4.10375 -0.878864 6.21625 0.781135C7.45375 1.75489 7.76125 3.12739 7.7 4.67489H0.725C0.62 7.45113 2.61875 9.12738 5.16625 8.27238C6.06 7.97238 6.58625 7.27238 6.85 6.39738C6.98375 5.95863 7.205 5.88989 7.6175 6.01489C7.40625 7.10989 6.9275 8.02488 5.9275 8.59738C4.4275 9.45488 2.28625 9.17738 1.16 7.98613C0.495 7.28613 0.2125 6.41488 0.0875 5.47364C0.06875 5.32364 0.03 5.17614 0 5.02739C0.0025 4.77405 0.00375001 4.52072 0.00375001 4.26739ZM0.7375 4.08114H7.04125C7 2.07364 5.75 0.647386 4.04125 0.634886C2.16625 0.619886 0.81875 2.01239 0.7375 4.08114Z" fill="black"/>
</svg>
