<svg width="10" height="16" viewBox="0 0 10 16" fill="none" xmlns="http://www.w3.org/2000/svg">
<g clip-path="url(#clip0_848_354)">
<path d="M2.5 16.0001C3.88 16.0001 5 14.8054 5 13.3334V10.6667H2.5C1.12 10.6667 0 11.8614 0 13.3334C0 14.8054 1.12 16.0001 2.5 16.0001Z" fill="#0ACF83"/>
<path d="M0 7.99992C0 6.52792 1.12 5.33325 2.5 5.33325H5V10.6666H2.5C1.12 10.6666 0 9.47192 0 7.99992Z" fill="#A259FF"/>
<path d="M0 2.66667C0 1.19467 1.12 0 2.5 0H5V5.33333H2.5C1.12 5.33333 0 4.13867 0 2.66667Z" fill="#F24E1E"/>
<path d="M5 0H7.5C8.88 0 10 1.19467 10 2.66667C10 4.13867 8.88 5.33333 7.5 5.33333H5V0Z" fill="#FF7262"/>
<path d="M10 7.99992C10 9.47192 8.88 10.6666 7.5 10.6666C6.12 10.6666 5 9.47192 5 7.99992C5 6.52792 6.12 5.33325 7.5 5.33325C8.88 5.33325 10 6.52792 10 7.99992Z" fill="#1ABCFE"/>
</g>
<defs>
<clipPath id="clip0_848_354">
<rect width="10" height="16" fill="white"/>
</clipPath>
</defs>
</svg>
