<svg width="24" height="24" viewBox="0 0 24 24" fill="none" xmlns="http://www.w3.org/2000/svg">
<path fill-rule="evenodd" clip-rule="evenodd" d="M12.0065 2C9.621 2.00135 7.31705 2.86835 5.52249 4.44C3.70313 6.03529 2.50218 8.21916 2.12949 10.61C1.74856 13.0109 2.21413 15.4696 3.44649 17.565C4.66115 19.6353 6.57666 21.2024 8.84649 21.983C9.35049 22.078 9.52949 21.76 9.52949 21.489C9.52949 21.244 9.51949 20.437 9.51549 19.581C6.73549 20.201 6.14949 18.371 6.14949 18.371C5.96952 17.755 5.576 17.2232 5.03949 16.871C4.13249 16.234 5.10949 16.25 5.10949 16.25C5.42649 16.294 5.72949 16.413 5.99449 16.596C6.26049 16.779 6.48149 17.022 6.64149 17.306C6.77649 17.559 6.95949 17.782 7.17949 17.961C7.50714 18.232 7.90997 18.3961 8.33371 18.4311C8.75746 18.4661 9.18177 18.3705 9.54949 18.157C9.59449 17.637 9.81949 17.151 10.1845 16.787C7.96549 16.528 5.63049 15.649 5.63049 11.717C5.61502 10.7031 5.98329 9.72083 6.66149 8.967C6.35548 8.08212 6.38971 7.11504 6.75749 6.254C6.75749 6.254 7.59649 5.979 9.50649 7.304C11.1429 6.84478 12.8741 6.84478 14.5105 7.304C16.4165 5.979 17.2505 6.254 17.2505 6.254C17.6205 7.112 17.6565 8.082 17.3515 8.967C18.029 9.72113 18.3965 10.7034 18.3805 11.717C18.3805 15.656 16.0415 16.522 13.8165 16.775C14.0566 17.0257 14.2412 17.3243 14.3582 17.6511C14.4752 17.978 14.522 18.3258 14.4955 18.672C14.4955 20.044 14.4835 21.149 14.4835 21.486C14.4835 21.758 14.6635 22.078 15.1705 21.978C17.4363 21.1942 19.3473 19.6262 20.5585 17.557C21.7886 15.4633 22.2528 13.0072 21.8715 10.609C21.4985 8.22036 20.2987 6.03849 18.4815 4.444C16.6901 2.87316 14.39 2.00487 12.0075 2H12.0065Z" fill="black"/>
</svg>
