<svg width="16" height="16" viewBox="0 0 16 16" fill="none" xmlns="http://www.w3.org/2000/svg">
<path d="M2.95065 13.6005L1.82715 1H14.1721L13.0471 13.5985L7.99215 15L2.95065 13.6005Z" fill="#E44F26"/>
<path d="M8 13.929L12.085 12.7965L13.046 2.03052H8V13.929Z" fill="#F1662A"/>
<path d="M8 6.70344H5.955L5.814 5.12094H8V3.57544H4.125L4.162 3.99044L4.5415 8.24894H8V6.70344ZM8 10.7169L7.993 10.7189L6.272 10.2544L6.162 9.02194H4.6105L4.827 11.4479L7.993 12.3269L8 12.3249V10.7169Z" fill="#EBEBEB"/>
<path d="M7.99414 6.70344V8.24894H9.89714L9.71814 10.2534L7.99414 10.7184V12.3264L11.1626 11.4479L11.1856 11.1869L11.5486 7.11844L11.5866 6.70344H7.99414ZM7.99414 3.57544V5.12094H11.7271L11.7581 4.77394L11.8286 3.99044L11.8656 3.57544H7.99414Z" fill="white"/>
</svg>
