<svg width="16" height="16" viewBox="0 0 16 16" fill="none" xmlns="http://www.w3.org/2000/svg">
<g clip-path="url(#clip0_639_12)">
<path d="M2.8375 0.200195H13.175C14.7375 0.200195 16.0125 1.4627 16.0125 3.0377V12.9752C16.0125 14.5377 14.75 15.8127 13.175 15.8127H2.8375C1.2625 15.8002 0 14.5377 0 12.9627V3.0377C0 1.4627 1.2625 0.200195 2.8375 0.200195Z" fill="#330000"/>
<path d="M7.73762 9.53711H5.25012L4.75012 11.0996C4.73762 11.1621 4.68762 11.1996 4.62512 11.1871H3.37512C3.30012 11.1871 3.28762 11.1496 3.30012 11.0621L5.45012 4.88711C5.47512 4.82461 5.48762 4.74961 5.51262 4.66211C5.53762 4.52461 5.55012 4.37461 5.55012 4.22461C5.53762 4.18711 5.57512 4.16211 5.60012 4.14961H7.32512C7.37512 4.14961 7.40012 4.17461 7.41262 4.19961L9.85012 11.0621C9.87512 11.1371 9.85012 11.1746 9.78762 11.1746H8.38762C8.33762 11.1871 8.30012 11.1496 8.27512 11.0996L7.73762 9.53711ZM5.63762 8.17461H7.32512C7.28762 8.03711 7.23762 7.86211 7.17512 7.69961C7.11262 7.52461 7.05012 7.32461 7.00012 7.12461C6.93762 6.91211 6.87512 6.71211 6.81262 6.51211C6.75012 6.29961 6.68762 6.11211 6.63762 5.92461C6.58762 5.73711 6.53762 5.56211 6.48762 5.39961H6.47512C6.41262 5.68711 6.33762 5.97461 6.25012 6.26211C6.15012 6.58711 6.05012 6.91211 5.93762 7.24961C5.83762 7.58711 5.73762 7.89961 5.63762 8.17461ZM11.3376 5.33711C11.1126 5.34961 10.9001 5.26211 10.7501 5.09961C10.6001 4.93711 10.5126 4.71211 10.5251 4.48711C10.5126 4.26211 10.6001 4.04961 10.7626 3.89961C10.9251 3.74961 11.1376 3.66211 11.3501 3.66211C11.6126 3.66211 11.8126 3.73711 11.9626 3.89961C12.1126 4.06211 12.1876 4.27461 12.1876 4.48711C12.2001 4.71211 12.1126 4.93711 11.9501 5.09961C11.7876 5.26211 11.5626 5.34961 11.3376 5.33711ZM10.5876 11.1246V5.98711C10.5876 5.92461 10.6126 5.89961 10.6751 5.89961H12.0001C12.0626 5.89961 12.0876 5.93711 12.0876 5.98711V11.1246C12.0876 11.1996 12.0626 11.2371 12.0001 11.2371H10.6876C10.6251 11.2246 10.5876 11.1871 10.5876 11.1246Z" fill="#FF9A00"/>
</g>
<defs>
<clipPath id="clip0_639_12">
<rect width="16" height="16" fill="white"/>
</clipPath>
</defs>
</svg>
