<svg width="16" height="16" viewBox="0 0 16 16" fill="none" xmlns="http://www.w3.org/2000/svg">
<g clip-path="url(#clip0_848_309)">
<path d="M0.175781 0.176025H15.8238V15.8242H0.175781V0.176025Z" fill="#F0DB4F"/>
<path d="M14.5437 12.0921C14.4291 11.3782 13.9636 10.7786 12.5847 10.2195C12.1057 9.99936 11.5717 9.84173 11.4126 9.47873C11.3561 9.26748 11.3486 9.14848 11.3843 9.02061C11.4869 8.60561 11.9823 8.47623 12.3749 8.59523C12.6278 8.67998 12.8672 8.87486 13.0116 9.18573C13.6868 8.74848 13.6854 8.75136 14.1569 8.45086C13.9843 8.18323 13.8922 8.05973 13.7792 7.94523C13.3731 7.49161 12.8197 7.25798 11.9347 7.27586L11.4737 7.33548C11.0319 7.44711 10.6109 7.67898 10.3641 7.98986C9.62331 8.83036 9.83456 10.3014 10.7359 10.9067C11.6239 11.5732 12.9284 11.7249 13.0951 12.3481C13.2572 13.1111 12.5343 13.3581 11.8158 13.2704C11.2863 13.1602 10.9918 12.8911 10.6734 12.4017C10.0874 12.7409 10.0874 12.7409 9.48494 13.0874C9.62781 13.3997 9.77794 13.5411 10.0174 13.8117C11.1509 14.9615 13.9874 14.905 14.4962 13.1647C14.5168 13.105 14.6538 12.7065 14.5437 12.0921ZM8.68306 7.36798H7.21944L7.21344 11.152C7.21344 11.9567 7.25506 12.6945 7.12419 12.9206C6.91006 13.3654 6.35519 13.3102 6.10231 13.224C5.84494 13.0975 5.71406 12.9176 5.56244 12.6634C5.52081 12.5904 5.48956 12.5339 5.47906 12.5295L4.28906 13.2582C4.48694 13.6644 4.77844 14.0169 5.15181 14.2459C5.70956 14.5806 6.45919 14.6832 7.24319 14.5032C7.75344 14.3546 8.19369 14.0467 8.42419 13.5781C8.75744 12.9637 8.68594 12.2201 8.68294 11.3976C8.69044 10.0557 8.68306 8.71411 8.68306 7.36798Z" fill="#323330"/>
</g>
<defs>
<clipPath id="clip0_848_309">
<rect width="16" height="16" fill="white"/>
</clipPath>
</defs>
</svg>
