<svg width="16" height="16" viewBox="0 0 16 16" fill="none" xmlns="http://www.w3.org/2000/svg">
<g clip-path="url(#clip0_848_320)">
<path fill-rule="evenodd" clip-rule="evenodd" d="M10.9072 12.5173C10.9284 12.4767 10.9486 12.4408 10.9659 12.4037C10.9767 12.3799 10.9935 12.3752 11.0171 12.3758C11.1587 12.3798 11.3004 12.3842 11.4421 12.3855C11.5625 12.3868 11.6831 12.3845 11.8036 12.3832C11.9394 12.3815 12.0751 12.3744 12.2107 12.3783C12.3914 12.3835 12.5674 12.4189 12.7307 12.4993C12.9259 12.5954 13.0735 12.7418 13.1741 12.9347C13.2374 13.0569 13.2769 13.1901 13.2905 13.3272C13.312 13.5282 13.2979 13.7245 13.2341 13.9168C13.1551 14.155 13.0051 14.3374 12.7967 14.474C12.6364 14.5792 12.4605 14.6413 12.272 14.6768C12.0725 14.7144 11.8724 14.7023 11.6722 14.7029C11.4527 14.7038 11.2334 14.699 11.0139 14.6965C10.9755 14.6962 10.97 14.6889 10.9801 14.6523L10.9895 14.6185C11.0109 14.5513 11.0224 14.5483 11.0906 14.537C11.139 14.5295 11.1853 14.5119 11.2265 14.4854C11.2495 14.4702 11.259 14.4304 11.268 14.3998C11.2757 14.373 11.2761 14.3437 11.2764 14.3154C11.2795 13.8873 11.2827 13.4593 11.2845 13.0314C11.285 12.9232 11.2823 12.815 11.2764 12.7069C11.2721 12.6313 11.2317 12.5795 11.1417 12.5617C11.0717 12.5478 11.0012 12.537 10.9309 12.5247L10.9072 12.5173ZM12.9167 13.5539C12.9072 13.4687 12.9026 13.3827 12.8874 13.2987C12.8509 13.097 12.7626 12.9214 12.6076 12.7838C12.357 12.5614 12.0552 12.5272 11.739 12.5537C11.667 12.5597 11.6515 12.5843 11.6504 12.6583C11.6486 12.7633 11.6469 12.8683 11.6467 12.9733C11.6462 13.3063 11.6462 13.6393 11.6467 13.9723C11.6467 14.0671 11.648 14.1618 11.6506 14.2563C11.6536 14.353 11.6887 14.4349 11.7835 14.4724C11.9329 14.5315 12.09 14.5385 12.2467 14.5144C12.4971 14.476 12.6722 14.3302 12.7897 14.1115C12.8827 13.938 12.909 13.7487 12.9167 13.5539ZM13.5254 14.6878C13.5224 14.6359 13.5436 14.593 13.5699 14.5537C13.577 14.543 13.6015 14.5435 13.6184 14.5402L13.7616 14.5118C13.8122 14.501 13.8389 14.467 13.846 14.4174C13.8507 14.3847 13.8552 14.3515 13.8556 14.3184C13.859 14.0563 13.8615 13.7942 13.863 13.532C13.8642 13.2695 13.8632 13.007 13.8632 12.7445L13.8621 12.6944C13.857 12.61 13.8162 12.5663 13.7325 12.5539L13.5509 12.5263C13.5285 12.5233 13.5204 12.5125 13.5285 12.4927C13.5425 12.4588 13.5559 12.4237 13.5756 12.3932C13.583 12.3819 13.6079 12.3775 13.6246 12.3779C13.7114 12.3792 13.7981 12.3857 13.8849 12.3855L14.64 12.381C14.7855 12.3809 14.926 12.4063 15.0565 12.4759C15.2001 12.5524 15.2805 12.6708 15.3035 12.832C15.3275 13.0014 15.2761 13.1442 15.1524 13.2575C15.1015 13.3043 15.0356 13.3348 14.9766 13.3728L14.9574 13.3848C15.0121 13.4049 15.0642 13.4223 15.115 13.443C15.2635 13.5039 15.3816 13.599 15.4441 13.7509C15.4935 13.8708 15.4935 13.9958 15.4642 14.12C15.4187 14.3145 15.2906 14.4439 15.124 14.5418C14.9676 14.6337 14.7984 14.6872 14.6181 14.6962C14.4519 14.7045 14.2849 14.7014 14.1182 14.7033L14.0217 14.7038C13.8611 14.7001 13.7006 14.6961 13.54 14.6918L13.5254 14.6878ZM14.2175 13.9267H14.2191C14.2191 14.0089 14.218 14.0912 14.2195 14.1734C14.2205 14.2267 14.2186 14.2814 14.2301 14.3327C14.2474 14.4093 14.2824 14.4784 14.3684 14.5004C14.4833 14.5305 14.6034 14.5358 14.7206 14.5159C14.8677 14.4903 14.9851 14.4165 15.0495 14.2764C15.0972 14.1723 15.1044 14.0619 15.088 13.9492C15.0662 13.8007 14.9874 13.6929 14.8562 13.6223C14.7702 13.5759 14.6785 13.5475 14.5807 13.5438C14.4712 13.5397 14.3616 13.5394 14.2521 13.536C14.2214 13.5352 14.2171 13.5508 14.2172 13.576C14.2179 13.6928 14.2175 13.8097 14.2175 13.9267ZM14.4506 13.3673C14.5105 13.3643 14.5782 13.3634 14.6456 13.3567C14.7746 13.3438 14.8655 13.2789 14.9129 13.1555C14.937 13.0929 14.936 13.0284 14.9366 12.9633C14.9385 12.7937 14.8395 12.6547 14.6784 12.5972C14.554 12.5528 14.4257 12.552 14.2967 12.5555C14.2445 12.5569 14.2211 12.5798 14.2204 12.6324L14.2126 13.3185C14.2122 13.3458 14.224 13.3575 14.2505 13.3584L14.4506 13.3673Z" fill="#94795D"/>
<path fill-rule="evenodd" clip-rule="evenodd" d="M1.31769 14.556L1.30857 14.674C1.22357 14.674 1.14519 14.6734 1.06682 14.6743C0.91919 14.6758 0.771565 14.6781 0.623815 14.6803L0.609565 14.6811C0.58844 14.6786 0.550065 14.6786 0.549065 14.6724C0.542815 14.6373 0.544815 14.6004 0.54644 14.564C0.546565 14.5599 0.56094 14.5546 0.569315 14.5526L0.68419 14.527C0.755815 14.5084 0.781065 14.4775 0.78444 14.4035C0.788315 14.3201 0.79219 14.2366 0.792565 14.1533C0.79369 13.948 0.79244 13.743 0.793315 13.5378C0.79344 13.4898 0.776815 13.454 0.732065 13.4345C0.678888 13.4109 0.625339 13.3882 0.57144 13.3663C0.54594 13.356 0.512815 13.3504 0.515815 13.3161C0.518815 13.2813 0.55094 13.2721 0.58119 13.2653C0.70644 13.2366 0.831815 13.2088 0.95669 13.1783C0.99694 13.1684 1.03544 13.1518 1.08357 13.135C1.08607 13.161 1.09069 13.1858 1.09019 13.2105L1.08282 13.3281C1.08269 13.3414 1.08957 13.3591 1.09944 13.3665C1.10544 13.3711 1.12557 13.3628 1.13557 13.355C1.24232 13.2738 1.35532 13.2036 1.48419 13.1628C1.68382 13.0994 1.85519 13.1581 1.97519 13.3303C2.01744 13.3909 2.01757 13.3909 2.07619 13.3485C2.17682 13.2754 2.28207 13.2109 2.39982 13.1684C2.65832 13.075 2.90669 13.1935 2.99657 13.4539C3.02932 13.5484 3.04182 13.646 3.04157 13.7458L3.03919 14.408C3.03907 14.4626 3.05719 14.4938 3.10919 14.5108C3.16757 14.5299 3.22807 14.543 3.29382 14.5603L3.27857 14.6741C3.20382 14.6741 3.13507 14.6736 3.06632 14.6743C2.89832 14.6758 2.73032 14.6766 2.56244 14.6805C2.53319 14.6813 2.52557 14.674 2.52407 14.6466C2.51919 14.559 2.51844 14.5591 2.60094 14.5394L2.62869 14.5323C2.70932 14.5103 2.73619 14.4855 2.73682 14.4038C2.73869 14.169 2.74357 13.9336 2.73169 13.6994C2.71932 13.4564 2.52644 13.327 2.29094 13.3893C2.21494 13.4101 2.14336 13.4446 2.07969 13.491C2.05782 13.5066 2.05369 13.5246 2.05544 13.552C2.06219 13.6555 2.06607 13.7591 2.06707 13.8628C2.06857 14.0441 2.06632 14.2255 2.06707 14.407C2.06732 14.4805 2.09244 14.5086 2.16507 14.5256L2.27294 14.5505L2.29294 14.555C2.29444 14.5895 2.29581 14.624 2.29419 14.6585C2.29319 14.6801 2.27644 14.682 2.25769 14.6816C2.15282 14.679 2.04782 14.6755 1.94294 14.6758C1.81532 14.676 1.68782 14.6796 1.56032 14.6819H1.53032C1.53032 14.6453 1.52857 14.6103 1.53157 14.5754C1.53219 14.567 1.54694 14.5553 1.55707 14.5526L1.68282 14.526C1.73619 14.5129 1.76169 14.4855 1.76469 14.4313C1.77894 14.18 1.78919 13.9286 1.76557 13.6775C1.7598 13.6279 1.74603 13.5796 1.72482 13.5344C1.66044 13.3921 1.51557 13.3328 1.34844 13.3755C1.26907 13.3958 1.19744 13.4321 1.12969 13.478C1.11496 13.4872 1.10286 13.5 1.09457 13.5152C1.08629 13.5304 1.08211 13.5475 1.08244 13.5649C1.08261 13.8156 1.08315 14.0661 1.08407 14.3166L1.08544 14.4133C1.08694 14.4806 1.11557 14.5161 1.18244 14.5306C1.22544 14.5404 1.26894 14.547 1.31769 14.556Z" fill="#50382B"/>
<path fill-rule="evenodd" clip-rule="evenodd" d="M8.87515 13.1607C8.89452 13.2549 8.89415 13.3397 8.8249 13.4039C8.75615 13.4678 8.66915 13.4463 8.58427 13.4321C8.59215 13.4768 8.6009 13.5148 8.60515 13.5533C8.63602 13.8394 8.5129 14.0518 8.24752 14.1732C8.14727 14.2189 8.0409 14.2359 7.93227 14.2447C7.87827 14.2489 7.83102 14.2902 7.8259 14.3346C7.82065 14.3796 7.8489 14.4258 7.9054 14.4393C7.97202 14.4552 8.04152 14.4597 8.1099 14.4676C8.25665 14.4843 8.40502 14.4919 8.55002 14.5182C8.76927 14.5577 8.89165 14.7491 8.85302 14.9693C8.81865 15.1653 8.70515 15.3079 8.5469 15.4173C8.28027 15.6021 7.98777 15.6561 7.67627 15.5618C7.49815 15.5078 7.37252 15.3907 7.32915 15.2012C7.3074 15.1063 7.33052 15.0204 7.4019 14.9561C7.48677 14.8798 7.57915 14.8118 7.66802 14.7398L7.69677 14.7109L7.66377 14.6878C7.57315 14.6448 7.50065 14.5859 7.47252 14.4837C7.4629 14.4491 7.4729 14.4263 7.50227 14.4086C7.55227 14.3785 7.60198 14.3478 7.6514 14.3167C7.67465 14.3022 7.69765 14.2872 7.71927 14.2704C7.74877 14.2479 7.74615 14.2312 7.7109 14.2182C7.6289 14.1879 7.55602 14.1441 7.49952 14.0766C7.40515 13.9639 7.3784 13.8298 7.38615 13.6882C7.39827 13.4669 7.5184 13.3212 7.71365 13.2274C7.94577 13.1161 8.17865 13.1091 8.41527 13.2106C8.50277 13.2481 8.59502 13.2561 8.6889 13.2496C8.75902 13.2446 8.82027 13.2181 8.87515 13.1607ZM8.01977 14.7458C7.84552 14.7443 7.7909 14.7658 7.68865 14.8699C7.57415 14.9867 7.57477 15.1486 7.68902 15.2658C7.77577 15.3547 7.88402 15.3963 8.0044 15.4088C8.14502 15.4233 8.28352 15.4174 8.41127 15.3471C8.54752 15.2717 8.61527 15.1317 8.58465 14.9907C8.55927 14.8743 8.47352 14.8211 8.36915 14.7904C8.2504 14.7557 8.12765 14.7491 8.01977 14.7458ZM7.67752 13.6323C7.6839 13.6807 7.68652 13.7297 7.69727 13.7771C7.72515 13.8998 7.77852 14.0077 7.90065 14.0623C8.04402 14.1267 8.22715 14.0991 8.2899 13.8978C8.3328 13.7639 8.32781 13.6192 8.27577 13.4886C8.25382 13.4288 8.21413 13.3772 8.16202 13.3406C8.03752 13.2537 7.8129 13.2422 7.7214 13.4342C7.69165 13.4966 7.68002 13.5629 7.67752 13.6323Z" fill="#4F382B"/>
<path fill-rule="evenodd" clip-rule="evenodd" d="M5.91852 13.1297C5.92315 13.151 5.9324 13.1753 5.93265 13.1997C5.93302 13.246 5.92802 13.2924 5.9254 13.3388V13.379L5.96465 13.349C6.07215 13.2605 6.18765 13.1852 6.32215 13.1445C6.5649 13.0714 6.8074 13.2043 6.88652 13.4515C6.91652 13.5455 6.9284 13.6422 6.92952 13.7404C6.93202 13.9587 6.93352 14.1769 6.93577 14.3952C6.93652 14.4735 6.94552 14.4875 7.01965 14.5102C7.06183 14.5227 7.10485 14.5323 7.1484 14.5388C7.17227 14.5425 7.18252 14.5519 7.18127 14.5753L7.18152 14.5968C7.18065 14.6872 7.1744 14.6913 7.08677 14.691C6.87702 14.6907 6.6674 14.6919 6.45765 14.6937C6.39515 14.6942 6.39502 14.696 6.38877 14.6343L6.38752 14.5988C6.3914 14.5455 6.39265 14.546 6.44502 14.5383C6.48027 14.533 6.51527 14.5249 6.54965 14.5159C6.58502 14.5068 6.60202 14.4807 6.60677 14.4457C6.60915 14.4279 6.61227 14.4102 6.61215 14.3924C6.60915 14.1539 6.61302 13.9152 6.60002 13.677C6.58952 13.4844 6.44252 13.3697 6.24915 13.3828C6.15594 13.3893 6.06634 13.4214 5.99027 13.4757C5.93865 13.5118 5.92827 13.5639 5.92852 13.62C5.92969 13.843 5.93152 14.0661 5.93402 14.2892C5.93452 14.338 5.9359 14.3869 5.94052 14.4354C5.9454 14.4884 5.96402 14.5098 6.01602 14.5213C6.06577 14.5323 6.11652 14.5387 6.16965 14.5475L6.17415 14.5885C6.1759 14.6842 6.1659 14.6913 6.07302 14.6909C5.85615 14.69 5.63927 14.6914 5.42252 14.6938C5.3884 14.6943 5.3739 14.6835 5.37477 14.6503L5.37427 14.636C5.36865 14.5499 5.37115 14.5467 5.45265 14.5327L5.49115 14.5249C5.5794 14.505 5.60202 14.4815 5.60327 14.3919C5.6074 14.108 5.6089 13.8243 5.61177 13.5404C5.61215 13.4997 5.59677 13.468 5.55877 13.4512C5.50544 13.4278 5.45181 13.4051 5.3979 13.3832C5.36815 13.3709 5.33415 13.3632 5.33302 13.322C5.33227 13.293 5.36327 13.2674 5.40565 13.2588C5.49077 13.2415 5.57665 13.2272 5.66077 13.206C5.74452 13.1852 5.82677 13.1572 5.91852 13.1297Z" fill="#4F372B"/>
<path fill-rule="evenodd" clip-rule="evenodd" d="M10.6083 13.8713C10.6043 14.1364 10.5354 14.3508 10.3479 14.5117C10.1104 14.7158 9.73994 14.7852 9.43706 14.6325C9.30781 14.5674 9.21281 14.4675 9.15094 14.3379C9.05606 14.1385 9.03231 13.9289 9.08181 13.7142C9.13081 13.5018 9.25944 13.3479 9.45194 13.2483C9.64994 13.1459 9.85844 13.1059 10.0783 13.1597C10.3564 13.2275 10.5563 13.4543 10.5961 13.743C10.6032 13.7937 10.6059 13.8449 10.6083 13.8713ZM10.2862 14.0149L10.2754 14.0137C10.2754 13.9887 10.2768 13.9637 10.2752 13.9387C10.2661 13.7829 10.2311 13.6345 10.1408 13.5042C10.0552 13.3807 9.93856 13.3078 9.78681 13.2972C9.61694 13.2852 9.47419 13.3802 9.42406 13.5537C9.34881 13.8142 9.37431 14.068 9.50656 14.3067C9.56419 14.4107 9.64956 14.4874 9.76394 14.5278C9.98806 14.6067 10.1868 14.5045 10.2452 14.275C10.2667 14.1903 10.2729 14.1017 10.2862 14.0149Z" fill="#4F382B"/>
<path fill-rule="evenodd" clip-rule="evenodd" d="M5.10235 13.8917C5.09772 14.0819 5.05285 14.2578 4.93535 14.4107C4.80947 14.5744 4.63647 14.6619 4.43972 14.6988C4.2071 14.7423 3.9886 14.7028 3.80172 14.5467C3.71297 14.4724 3.65235 14.3773 3.61235 14.269C3.54672 14.0915 3.53035 13.9097 3.57072 13.7243C3.61385 13.5259 3.72585 13.3743 3.89947 13.2725C4.10022 13.1552 4.31685 13.1028 4.54822 13.1555C4.84572 13.2235 5.01747 13.4174 5.08097 13.7109C5.09372 13.7702 5.09547 13.8314 5.10235 13.8917ZM4.7766 14.0172L4.76797 14.0159V13.9802C4.7631 13.8057 4.72897 13.6394 4.62485 13.4944C4.54772 13.3868 4.44447 13.3193 4.3121 13.3004C4.09635 13.2697 3.95535 13.3977 3.9086 13.5715C3.8476 13.7987 3.86672 14.023 3.9611 14.2384C4.01997 14.3727 4.11297 14.4773 4.25585 14.528C4.4786 14.6072 4.68035 14.5024 4.73672 14.2738C4.75747 14.1902 4.76372 14.1029 4.7766 14.0172Z" fill="#4F372B"/>
<path fill-rule="evenodd" clip-rule="evenodd" d="M10.2953 4.19312C10.4486 4.63649 10.5589 5.08912 10.5953 5.55812C10.6403 6.14012 10.6198 6.71812 10.497 7.29049L10.4813 7.33624C10.4428 7.33637 10.4035 7.33149 10.3659 7.33737C10.048 7.38737 9.73051 7.43912 9.41288 7.49062C9.08451 7.54387 8.75588 7.59499 8.42813 7.65174C8.31201 7.67174 8.16826 7.64787 8.12138 7.80837L8.09888 7.81599L8.11476 6.85624L8.09863 4.54049L8.25163 4.51424C8.50176 4.47337 8.75188 4.43174 9.00238 4.39187C9.30113 4.34449 9.60013 4.29824 9.89913 4.25199C10.0311 4.23174 10.1633 4.21287 10.2953 4.19312Z" fill="#439934"/>
<path fill-rule="evenodd" clip-rule="evenodd" d="M7.78299 10.614C7.62161 10.4752 7.45462 10.3426 7.29999 10.1966C6.46774 9.41161 5.85887 8.48749 5.55899 7.37336C5.47637 7.06686 5.42137 6.75524 5.40362 6.43849C5.39112 6.21674 5.37324 5.99311 5.38899 5.77249C5.43062 5.18586 5.51549 4.60486 5.68749 4.03974L5.69699 4.02661C5.71374 4.04886 5.73774 4.06861 5.74624 4.09374C5.91416 4.58824 6.08099 5.08319 6.24674 5.57861C6.76786 7.13499 7.28837 8.69174 7.81037 10.2479C7.82062 10.2782 7.84699 10.3031 7.86599 10.3305L7.78299 10.614Z" fill="#45A538"/>
<path fill-rule="evenodd" clip-rule="evenodd" d="M10.2951 4.19308C10.163 4.2127 10.0309 4.2317 9.89901 4.25195C9.60001 4.2982 9.30101 4.34445 9.00226 4.39183C8.75188 4.43158 8.50176 4.4732 8.25151 4.5142L8.09851 4.54045L8.09726 4.4407C8.09213 4.3587 8.08363 4.2767 8.08251 4.1947L8.06538 2.62545C8.06138 2.29808 8.05538 1.9707 8.04876 1.64345C8.04539 1.44006 8.03951 1.23671 8.03113 1.03345C8.02613 0.924328 8.00851 0.815703 8.00151 0.706578C7.99738 0.643828 8.00288 0.580578 8.00426 0.517578C8.08226 0.668703 8.15863 0.820953 8.23876 0.970953C8.36538 1.20808 8.56726 1.38283 8.74913 1.57345C9.46738 2.32733 9.97726 3.20333 10.2951 4.19308Z" fill="#46A037"/>
<path fill-rule="evenodd" clip-rule="evenodd" d="M8.09902 7.81576L8.12152 7.80813C8.1684 7.64763 8.31215 7.67151 8.42827 7.65151C8.75602 7.59476 9.08465 7.54363 9.41302 7.49038C9.73065 7.43901 10.0481 7.38726 10.366 7.33713C10.4036 7.33126 10.4429 7.33613 10.4814 7.33601C10.422 7.54801 10.3753 7.76463 10.2999 7.97076C10.2143 8.20451 10.1108 8.43276 10.0009 8.65651C9.8363 8.99017 9.63267 9.30311 9.39427 9.58876C9.21102 9.80901 9.00677 10.0129 8.80215 10.214C8.6889 10.3251 8.55565 10.4158 8.4314 10.5158L8.39915 10.4938L8.28327 10.3948L8.1634 10.1318C8.08155 9.82505 8.03686 9.50963 8.03027 9.19226L8.03252 9.13876L8.0489 8.90701C8.05427 8.82788 8.06152 8.74888 8.0649 8.66976C8.0769 8.38526 8.08765 8.10051 8.09902 7.81576Z" fill="#409433"/>
<path fill-rule="evenodd" clip-rule="evenodd" d="M8.09914 7.81576C8.08789 8.10051 8.07714 8.38538 8.06502 8.67013C8.06164 8.74938 8.05452 8.82838 8.04902 8.90738L7.97602 8.93501C7.81377 8.45739 7.65139 7.98476 7.49264 7.51101C7.23002 6.72714 6.97064 5.94213 6.70839 5.15801C6.49662 4.52518 6.28337 3.89284 6.06864 3.26101C6.05852 3.23151 6.02977 3.20826 6.00977 3.18213L6.47727 2.32251C6.49339 2.35038 6.51452 2.37651 6.52464 2.40651C6.74089 3.04651 6.95677 3.68663 7.17077 4.32738C7.44927 5.16113 7.72589 5.99526 8.00414 6.82913C8.01527 6.86238 8.03352 6.89313 8.05102 6.93051L8.11502 6.85601L8.09914 7.81576Z" fill="#4FAA41"/>
<path fill-rule="evenodd" clip-rule="evenodd" d="M6.00977 3.18213C6.02989 3.20825 6.05864 3.2315 6.06864 3.261C6.28339 3.89283 6.49664 4.52517 6.70839 5.158C6.97064 5.94213 7.23002 6.72713 7.49264 7.511C7.65139 7.98475 7.81377 8.45725 7.97602 8.935L8.04902 8.90738L8.03264 9.13913L8.01777 9.1925C7.99239 9.44613 7.97102 9.70025 7.94002 9.95338C7.92452 10.0803 7.89139 10.2048 7.86627 10.3303C7.84739 10.3029 7.82089 10.278 7.81064 10.2476C7.28852 8.6915 6.76814 7.13475 6.24702 5.57838C6.08121 5.08307 5.91438 4.58811 5.74652 4.0935C5.73802 4.06838 5.71402 4.04863 5.69727 4.02638L6.00977 3.18213Z" fill="#4AA73C"/>
<path fill-rule="evenodd" clip-rule="evenodd" d="M8.11431 6.85601L8.05031 6.93051C8.03281 6.89314 8.01456 6.86239 8.00344 6.82914C7.72519 5.99526 7.44856 5.16114 7.17006 4.32739C6.95581 3.68672 6.74044 3.04642 6.52394 2.40651C6.51381 2.37651 6.49269 2.35039 6.47656 2.32251L7.05469 1.56201C7.07294 1.58626 7.09894 1.60789 7.10831 1.63526C7.26873 2.10526 7.42798 2.57564 7.58606 3.04639C7.73381 3.48614 7.87931 3.92639 8.02881 4.36539C8.03881 4.39476 8.07369 4.41551 8.09694 4.44051L8.09819 4.54026L8.11431 6.85601Z" fill="#57AE47"/>
<path fill-rule="evenodd" clip-rule="evenodd" d="M8.09694 4.44058C8.07356 4.4157 8.03881 4.39495 8.02881 4.36545C7.87944 3.92645 7.73381 3.4862 7.58606 3.04645C7.42794 2.5757 7.26868 2.10532 7.10831 1.63533C7.09894 1.60795 7.07294 1.58633 7.05469 1.56208C7.24269 1.37795 7.42481 1.1872 7.62044 1.01158C7.79431 0.855578 7.93406 0.688328 7.94056 0.441703L7.95431 0.392578L8.00381 0.517328C8.00256 0.580328 7.99694 0.643578 8.00106 0.706328C8.00819 0.815453 8.02581 0.924078 8.03069 1.0332C8.03981 1.23633 8.04419 1.43983 8.04831 1.6432C8.05494 1.97045 8.06094 2.29783 8.06494 2.6252L8.08206 4.19445C8.08331 4.27658 8.09194 4.35858 8.09694 4.44058Z" fill="#60B24F"/>
<path fill-rule="evenodd" clip-rule="evenodd" d="M7.86633 10.3302C7.89145 10.2047 7.92458 10.0802 7.94008 9.95328C7.97108 9.70028 7.99245 9.44603 8.01783 9.19241L8.0242 9.19141L8.03045 9.19253C8.03704 9.5099 8.08173 9.82533 8.16358 10.132C8.1467 10.1543 8.12308 10.1739 8.11408 10.1989C8.0447 10.3947 7.9792 10.592 7.90945 10.7877C7.89995 10.8144 7.8732 10.8353 7.85458 10.8587L7.7832 10.6137L7.86633 10.3302Z" fill="#A9AA88"/>
<path fill-rule="evenodd" clip-rule="evenodd" d="M7.85449 10.8589C7.87312 10.8354 7.89987 10.8147 7.90937 10.7879C7.97912 10.5923 8.04462 10.3949 8.11399 10.1992C8.12287 10.1742 8.14662 10.1546 8.16349 10.1323L8.28337 10.3953C8.25974 10.4288 8.22699 10.4592 8.21387 10.4966L7.98437 11.1706C7.97487 11.1977 7.94274 11.2167 7.92099 11.2396L7.85449 10.8589Z" fill="#B6B598"/>
<path fill-rule="evenodd" clip-rule="evenodd" d="M7.9209 11.2393C7.94252 11.2164 7.97477 11.1974 7.98427 11.1703L8.21377 10.4963C8.22677 10.4589 8.25965 10.4285 8.28327 10.395L8.39927 10.4939C8.34327 10.5493 8.31215 10.6133 8.3309 10.6941L8.29565 10.8095C8.27965 10.8293 8.2564 10.8465 8.24852 10.8691C8.1684 11.0986 8.09202 11.3294 8.01127 11.5588C8.00102 11.5878 7.97265 11.6106 7.95277 11.6364L7.9209 11.2393Z" fill="#C2C1A7"/>
<path fill-rule="evenodd" clip-rule="evenodd" d="M7.95268 11.6364C7.97268 11.6107 8.00106 11.5878 8.01118 11.5588C8.09193 11.3294 8.16843 11.0987 8.24843 10.8692C8.25631 10.8466 8.27956 10.8294 8.29556 10.8096L8.24693 11.3391C8.23393 11.3541 8.21518 11.3672 8.20893 11.3846L8.04718 11.8481C8.03581 11.8797 8.01406 11.9079 7.99706 11.9376C7.98193 11.9178 7.95493 11.8987 7.95368 11.8782C7.94893 11.7979 7.95231 11.7171 7.95268 11.6364Z" fill="#CECDB7"/>
<path fill-rule="evenodd" clip-rule="evenodd" d="M7.99707 11.9376C8.01407 11.908 8.03582 11.8797 8.04719 11.8481L8.20894 11.3846C8.21519 11.3671 8.23407 11.3541 8.24694 11.3391L8.2482 11.6866L8.13182 11.985L7.99707 11.9376Z" fill="#DBDAC7"/>
<path fill-rule="evenodd" clip-rule="evenodd" d="M8.13184 11.9849L8.24821 11.6865L8.27221 12.0395L8.13184 11.9849Z" fill="#EBE9DC"/>
<path fill-rule="evenodd" clip-rule="evenodd" d="M8.33061 10.6941C8.31199 10.6134 8.34299 10.5494 8.39899 10.4939L8.43124 10.5159L8.33061 10.6941Z" fill="#CECDB7"/>
<path fill-rule="evenodd" clip-rule="evenodd" d="M8.0302 9.19266L8.02395 9.19153L8.01758 9.19254L8.03245 9.13916L8.0302 9.19266Z" fill="#4FAA41"/>
</g>
<defs>
<clipPath id="clip0_848_320">
<rect width="16" height="16" fill="white"/>
</clipPath>
</defs>
</svg>
