<svg width="16" height="16" viewBox="0 0 16 16" fill="none" xmlns="http://www.w3.org/2000/svg">
<g clip-path="url(#clip0_745_92)">
<path d="M8.3697 0.102348C8.25487 0.0365634 8.12484 0.00195312 7.99251 0.00195312C7.86018 0.00195312 7.73015 0.0365634 7.61532 0.102348L1.38782 3.71922C1.15095 3.85322 1.01782 4.1061 1.01782 4.37422V11.6227C1.01782 11.8906 1.1657 12.1436 1.38757 12.2777L7.61507 15.8945C7.72991 15.9603 7.85996 15.9949 7.99232 15.9949C8.12468 15.9949 8.25473 15.9603 8.36957 15.8945L14.5971 12.2776C14.8338 12.1436 14.9668 11.8906 14.9668 11.6226V4.37422C14.9668 4.10622 14.8189 3.85335 14.5971 3.71922L8.3697 0.102348Z" fill="url(#paint0_linear_745_92)"/>
<path d="M14.6121 3.72055L8.35512 0.103672C8.29373 0.0723158 8.22926 0.0473917 8.16275 0.0292969L1.15125 12.1003C1.20933 12.1715 1.27943 12.232 1.35837 12.279L7.6155 15.8958C7.793 15.9999 8 16.0298 8.19237 15.9702L14.7749 3.85455C14.7317 3.79795 14.676 3.75209 14.6121 3.72055Z" fill="url(#paint1_linear_745_92)"/>
<path d="M14.6122 12.2782C14.7897 12.174 14.9228 11.9954 14.9819 11.8019L8.13319 0.0135323C7.95569 -0.0162177 7.76331 -0.00134265 7.60069 0.102907L1.38794 3.70491L8.08869 15.9993C8.17744 15.9843 8.28119 15.9545 8.36994 15.9099L14.6122 12.2782Z" fill="url(#paint2_linear_745_92)"/>
</g>
<defs>
<linearGradient id="paint0_linear_745_92" x1="10.5286" y1="2.79579" x2="4.84123" y2="14.3258" gradientUnits="userSpaceOnUse">
<stop stop-color="#3F873F"/>
<stop offset="0.33" stop-color="#3F8B3D"/>
<stop offset="0.637" stop-color="#3E9638"/>
<stop offset="0.934" stop-color="#3DA92E"/>
<stop offset="1" stop-color="#3DAE2B"/>
</linearGradient>
<linearGradient id="paint1_linear_745_92" x1="7.04632" y1="8.84627" x2="22.9145" y2="-2.80593" gradientUnits="userSpaceOnUse">
<stop offset="0.138" stop-color="#3F873F"/>
<stop offset="0.402" stop-color="#52A044"/>
<stop offset="0.713" stop-color="#64B749"/>
<stop offset="0.908" stop-color="#6ABF4B"/>
</linearGradient>
<linearGradient id="paint2_linear_745_92" x1="0.7899" y1="7.99683" x2="15.1999" y2="7.99683" gradientUnits="userSpaceOnUse">
<stop offset="0.092" stop-color="#6ABF4B"/>
<stop offset="0.287" stop-color="#64B749"/>
<stop offset="0.598" stop-color="#52A044"/>
<stop offset="0.862" stop-color="#3F873F"/>
</linearGradient>
<clipPath id="clip0_745_92">
<rect width="16" height="16" fill="white"/>
</clipPath>
</defs>
</svg>
