<svg width="22" height="22" viewBox="0 0 22 22" fill="none" xmlns="http://www.w3.org/2000/svg">
<path d="M0 8.78247V13.2103H0.760031V9.72881L3.56297 13.212H8.32288V12.5051H5.2513V11.3362H7.72114V10.6293H5.2513V9.49128H8.3227V8.78385H4.49109V9.49128H4.49144V13.1794L0.949953 8.78247H0ZM14.6248 8.78419V9.49146H16.1769V13.2125H16.9366V9.49146H18.4571V8.78402H14.6248V8.78419ZM9.24137 8.78608L12.8043 13.2143H13.8017L12.0202 11.0017L13.7992 8.78952L12.804 8.79124L11.522 10.383L10.2364 8.78625H9.2412L9.24137 8.78608ZM21.2998 11.2951C21.169 11.2951 21.0514 11.3171 20.9473 11.3628C20.8437 11.4081 20.762 11.4716 20.7022 11.5533C20.642 11.6352 20.6119 11.7305 20.6119 11.8393C20.6117 11.9715 20.6564 12.0773 20.746 12.1567C20.835 12.2365 20.9567 12.2958 21.1111 12.3348L21.3242 12.3884C21.3844 12.403 21.4433 12.4222 21.5005 12.4458C21.545 12.4633 21.5851 12.4904 21.6179 12.525C21.6465 12.5583 21.6617 12.601 21.6605 12.6448C21.661 12.6951 21.6438 12.744 21.6119 12.7829C21.5773 12.8246 21.5322 12.8563 21.4813 12.8748C21.419 12.8978 21.3531 12.909 21.2867 12.9078C21.2214 12.9089 21.1565 12.8983 21.0949 12.8765C21.0413 12.8572 20.9936 12.8242 20.9567 12.7808C20.9204 12.7351 20.8992 12.6791 20.8962 12.6208H20.5626C20.5672 12.743 20.5996 12.8469 20.6599 12.9322C20.7503 13.0603 20.8036 13.0823 20.9108 13.1264C21.0174 13.1711 21.1441 13.1935 21.2893 13.1935C21.4396 13.1932 21.5676 13.1703 21.6731 13.1247C21.7791 13.0783 21.8601 13.0143 21.9161 12.9326C21.9723 12.8502 22 12.7559 22 12.6476C21.9999 12.5674 21.9846 12.4977 21.9543 12.4384C21.9244 12.3794 21.8822 12.3274 21.8305 12.286C21.7769 12.243 21.7174 12.2078 21.6538 12.1816C21.5878 12.1535 21.5193 12.1314 21.4493 12.1155L21.274 12.0725C21.2353 12.0632 21.197 12.052 21.1594 12.039C21.1233 12.0268 21.0889 12.0103 21.0567 11.99C21.0269 11.9721 21.0015 11.9475 20.9828 11.9182C20.9642 11.8883 20.9547 11.8536 20.9557 11.8185C20.9557 11.7741 20.97 11.7308 20.9966 11.6952C21.0234 11.6591 21.0628 11.6306 21.1131 11.6093C21.171 11.5872 21.2327 11.5764 21.2946 11.5777C21.3952 11.5776 21.4772 11.5995 21.5404 11.6435C21.571 11.6641 21.5965 11.6913 21.615 11.7232C21.6336 11.755 21.6447 11.7907 21.6475 11.8274H21.974C21.9737 11.7285 21.943 11.632 21.8859 11.5512C21.8286 11.471 21.7497 11.4082 21.6492 11.3628C21.5489 11.3175 21.4325 11.2949 21.2998 11.2951ZM19.9251 11.3199V12.6175C19.9246 12.6825 19.9145 12.7371 19.8949 12.7815C19.8772 12.8233 19.8468 12.8584 19.8079 12.8819C19.7702 12.9048 19.7242 12.9162 19.6699 12.9162C19.6202 12.9162 19.576 12.9065 19.5374 12.887C19.5001 12.8687 19.4689 12.84 19.4477 12.8043C19.4254 12.7651 19.4138 12.7206 19.4141 12.6754H19.0767C19.0765 12.7891 19.1021 12.884 19.1536 12.9601C19.2049 13.0364 19.2772 13.0962 19.3617 13.1323C19.4551 13.1723 19.5558 13.1923 19.6573 13.1907C19.7773 13.1907 19.8824 13.1678 19.9727 13.122C20.0612 13.0781 20.1349 13.0095 20.1852 12.9245C20.2356 12.8389 20.2613 12.7365 20.2622 12.6173V11.3199H19.9251ZM10.7587 11.33L9.23862 13.2175H10.2364L11.2568 11.9491L10.7587 11.33ZM18.628 12.7906C18.5723 12.7906 18.5247 12.8098 18.4853 12.8483C18.4662 12.866 18.4511 12.8875 18.4409 12.9114C18.4307 12.9353 18.4257 12.9611 18.4262 12.987C18.4255 13.0133 18.4305 13.0395 18.4407 13.0637C18.4509 13.0879 18.4661 13.1097 18.4853 13.1276C18.5247 13.1663 18.5723 13.1855 18.628 13.1854C18.6627 13.1857 18.6968 13.1764 18.7266 13.1586C18.7568 13.1413 18.7821 13.1167 18.8002 13.0871C18.8189 13.0571 18.8288 13.0224 18.8287 12.987C18.8287 12.961 18.8233 12.9352 18.8128 12.9113C18.8023 12.8875 18.787 12.866 18.7679 12.8483C18.7496 12.8298 18.7278 12.8152 18.7038 12.8053C18.6798 12.7954 18.654 12.7904 18.628 12.7906Z" fill="black"/>
</svg>
