<svg width="4" height="6" viewBox="0 0 4 6" fill="none" xmlns="http://www.w3.org/2000/svg">
<path d="M0 0.75C0 0.551088 0.0842854 0.360322 0.234315 0.21967C0.384344 0.0790176 0.587827 0 0.8 0L3.2 0C3.41217 0 3.61566 0.0790176 3.76569 0.21967C3.91571 0.360322 4 0.551088 4 0.75V5.25C4 5.44891 3.91571 5.63968 3.76569 5.78033C3.61566 5.92098 3.41217 6 3.2 6H0.8C0.587827 6 0.384344 5.92098 0.234315 5.78033C0.0842854 5.63968 0 5.44891 0 5.25V0.75ZM2.4 4.875C2.4 4.77554 2.35786 4.68016 2.28284 4.60984C2.20783 4.53951 2.10609 4.5 2 4.5C1.89391 4.5 1.79217 4.53951 1.71716 4.60984C1.64214 4.68016 1.6 4.77554 1.6 4.875C1.6 4.97446 1.64214 5.06984 1.71716 5.14016C1.79217 5.21049 1.89391 5.25 2 5.25C2.10609 5.25 2.20783 5.21049 2.28284 5.14016C2.35786 5.06984 2.4 4.97446 2.4 4.875Z" fill="#777777"/>
</svg>
