<svg width="16" height="16" viewBox="0 0 16 16" fill="none" xmlns="http://www.w3.org/2000/svg">
<g clip-path="url(#clip0_639_9)">
<path d="M2.83337 0.200195H13.1666C14.7334 0.200195 16 1.46682 16 3.03357V12.9668C16 14.5336 14.7334 15.8002 13.1666 15.8002H2.83337C1.26662 15.8002 0 14.5336 0 12.9668V3.03357C0 1.46682 1.26662 0.200195 2.83337 0.200195Z" fill="#001E36"/>
<path d="M5.73347 4.16699C5.53347 4.16699 5.33347 4.16699 5.12685 4.17374C4.9201 4.18037 4.72672 4.18037 4.54672 4.18712C4.36672 4.19374 4.2001 4.19374 4.0401 4.20037C3.88672 4.20699 3.7801 4.20699 3.66672 4.20699C3.6201 4.20699 3.6001 4.23362 3.6001 4.28037V11.1404C3.6001 11.2004 3.62672 11.2271 3.6801 11.2271H4.97347C5.0201 11.2204 5.05347 11.1804 5.04672 11.1337V8.99374C5.17335 8.99374 5.26672 8.99374 5.33347 9.00037C5.4001 9.00699 5.50672 9.00699 5.66672 9.00699C6.21347 9.00699 6.71347 8.94699 7.16672 8.78037C7.6001 8.62037 7.97347 8.34037 8.2401 7.96699C8.50676 7.59366 8.6401 7.12033 8.6401 6.54699C8.6401 6.24699 8.58685 5.96037 8.48685 5.68037C8.38089 5.3951 8.21489 5.13593 8.0001 4.92037C7.74658 4.67407 7.4414 4.4873 7.10672 4.37362C6.73335 4.23362 6.2801 4.16699 5.73347 4.16699ZM5.88222 5.48012C6.11972 5.48462 6.35097 5.52612 6.56672 5.61362C6.7601 5.68699 6.9201 5.82037 7.03347 5.99362C7.1398 6.17292 7.19299 6.37875 7.18685 6.58712C7.18685 6.88037 7.1201 7.10712 6.9801 7.27374C6.83335 7.44037 6.64672 7.56712 6.43347 7.62712C6.18672 7.70712 5.92672 7.74699 5.66672 7.74699H5.31335C5.23335 7.74699 5.14685 7.74037 5.05347 7.73374V5.49374C5.1001 5.48699 5.19347 5.48037 5.32685 5.48712C5.45347 5.48037 5.60672 5.48037 5.7801 5.48037C5.81426 5.47953 5.84831 5.47945 5.88222 5.48012ZM11.4735 5.82049C11.0001 5.82049 10.6067 5.89374 10.2935 6.05374C10.0068 6.18712 9.7601 6.40037 9.59347 6.66699C9.44685 6.91374 9.36672 7.18699 9.36672 7.47374C9.36102 7.70959 9.41371 7.94318 9.5201 8.15374C9.64478 8.37795 9.8179 8.57152 10.0268 8.72037C10.3201 8.92095 10.6384 9.08232 10.9735 9.20037C11.3001 9.32699 11.5201 9.42699 11.6268 9.51362C11.7335 9.60037 11.7868 9.68699 11.7868 9.78037C11.7868 9.90037 11.7135 10.0137 11.6068 10.0604C11.4868 10.1204 11.3068 10.1537 11.0535 10.1537C10.7868 10.1537 10.5201 10.1204 10.2667 10.0537C9.9758 9.98877 9.69686 9.87855 9.4401 9.72712C9.4201 9.71374 9.4001 9.70712 9.3801 9.72049C9.3601 9.73374 9.35347 9.76037 9.35347 9.78037V10.9404C9.34685 10.9937 9.3801 11.0404 9.42685 11.067C9.64304 11.168 9.87171 11.2397 10.1068 11.2804C10.4068 11.3404 10.7067 11.367 11.0133 11.367C11.4933 11.367 11.8935 11.2937 12.2201 11.1537C12.5201 11.0337 12.7801 10.8271 12.9667 10.5604C13.1415 10.2981 13.2322 9.98884 13.2267 9.67374C13.2333 9.43571 13.1806 9.19977 13.0735 8.98712C12.9467 8.76037 12.7667 8.57374 12.5467 8.43374C12.2249 8.23163 11.8803 8.06824 11.5201 7.94699C11.3593 7.88042 11.2013 7.80702 11.0467 7.72699C10.9601 7.68037 10.8801 7.62037 10.8201 7.54699C10.7801 7.49362 10.7535 7.43374 10.7535 7.37374C10.7535 7.31374 10.7735 7.24712 10.8067 7.19374C10.8535 7.12712 10.9267 7.08037 11.0133 7.06037C11.1401 7.02712 11.2801 7.00699 11.4133 7.01362C11.6667 7.01362 11.9133 7.04699 12.1601 7.10037C12.3868 7.14699 12.6001 7.22037 12.8001 7.32712C12.8267 7.34037 12.8601 7.34037 12.9201 7.32712C12.9305 7.3194 12.939 7.30933 12.9448 7.29773C12.9506 7.28613 12.9535 7.27333 12.9535 7.26037V6.17374C12.9535 6.14699 12.9467 6.12037 12.9401 6.09374C12.9267 6.06712 12.9001 6.04037 12.8735 6.03374C12.6896 5.95859 12.4969 5.90705 12.3001 5.88037C12.0264 5.84051 11.7501 5.82058 11.4735 5.82049Z" fill="#31A8FF"/>
</g>
<defs>
<clipPath id="clip0_639_9">
<rect width="16" height="16" fill="white"/>
</clipPath>
</defs>
</svg>
