<svg width="16" height="15" viewBox="0 0 16 15" fill="none" xmlns="http://www.w3.org/2000/svg">
<path d="M13.1552 4.85683C12.9849 4.79535 12.8132 4.73838 12.6402 4.68598C12.6692 4.56098 12.696 4.43749 12.7198 4.31617C13.1096 2.324 12.8547 0.719067 11.9842 0.190646C11.1495 -0.315933 9.78444 0.212291 8.40581 1.47525C8.26994 1.59994 8.13708 1.72823 8.00737 1.85999C7.92054 1.77238 7.83217 1.68646 7.74231 1.60229C6.29744 0.251897 4.84919 -0.317248 3.97956 0.212686C3.14563 0.720844 2.89869 2.22959 3.24969 4.11762C3.28461 4.30461 3.32404 4.49063 3.36794 4.67552C3.16294 4.73683 2.96512 4.80209 2.77581 4.87157C1.08181 5.49328 0 6.46755 0 7.47815C0 8.5219 1.16138 9.5688 2.92575 10.2036C3.06879 10.2548 3.21303 10.3023 3.35831 10.346C3.31114 10.5452 3.26925 10.7456 3.23269 10.9472C2.89806 12.8025 3.15937 14.2756 3.99106 14.7805C4.85006 15.302 6.29181 14.766 7.69562 13.4743C7.80945 13.3692 7.92078 13.2612 8.0295 13.1504C8.16997 13.2931 8.31419 13.4316 8.462 13.5658C9.82187 14.7975 11.1649 15.2949 11.9958 14.7885C12.8539 14.2656 13.1329 12.6831 12.7708 10.7578C12.7422 10.6069 12.7102 10.4568 12.6748 10.3076C12.7761 10.276 12.8754 10.2435 12.9723 10.2097C14.8066 9.57006 16 8.53584 16 7.47815C16 6.46387 14.8833 5.48301 13.1552 4.85683ZM12.7574 9.52683C12.6698 9.55727 12.5802 9.58677 12.4886 9.61532C12.2861 8.94052 12.0129 8.22301 11.6784 7.48163C11.9976 6.75795 12.2603 6.04959 12.4571 5.3792C12.6208 5.42907 12.7796 5.48163 12.9327 5.53709C14.4134 6.07367 15.3165 6.8669 15.3165 7.47815C15.3165 8.1292 14.3411 8.9744 12.7574 9.52683ZM12.1003 10.8975C12.2604 11.7488 12.2832 12.5185 12.1771 13.1203C12.0819 13.661 11.8903 14.0215 11.6532 14.1659C11.1491 14.4731 10.0707 14.0738 8.90781 13.0204C8.77034 12.8956 8.63618 12.7668 8.5055 12.6342C8.95638 12.1152 9.40694 11.5118 9.84669 10.8417C10.6202 10.7695 11.3509 10.6513 12.0136 10.4901C12.0463 10.6287 12.0752 10.7646 12.1003 10.8975ZM5.45475 14.1128C4.96212 14.2959 4.56975 14.3012 4.33256 14.1572C3.82787 13.8508 3.61806 12.668 3.90425 11.0814C3.93827 10.894 3.97722 10.7075 4.02106 10.5223C4.67644 10.6749 5.40188 10.7847 6.17719 10.8508C6.61994 11.5066 7.0835 12.1093 7.55069 12.637C7.4514 12.7381 7.34976 12.8367 7.24587 12.9326C6.62506 13.5037 6.003 13.909 5.45475 14.1128ZM3.14687 9.52282C2.36669 9.24209 1.72238 8.87729 1.28075 8.4792C0.883875 8.1215 0.683563 7.7663 0.683563 7.47815C0.683563 6.86486 1.55212 6.08262 3.00081 5.55098C3.17663 5.4865 3.36063 5.42565 3.55156 5.36854C3.75181 6.05407 4.01444 6.77084 4.33138 7.49565C4.01031 8.23117 3.74394 8.9594 3.54175 9.65302C3.40913 9.61302 3.27747 9.56961 3.14687 9.52282ZM3.9205 3.9794C3.61981 2.36183 3.8195 1.14163 4.32206 0.835383C4.85731 0.509199 6.04094 0.974265 7.2885 2.14032C7.36985 2.21652 7.44989 2.29428 7.52856 2.37354C7.06369 2.899 6.60437 3.49723 6.16556 4.14907C5.41306 4.22249 4.69275 4.34038 4.0305 4.49834C3.98969 4.32639 3.95301 4.1533 3.9205 3.9794ZM10.8222 5.77341C10.6658 5.489 10.5035 5.20817 10.3356 4.93111C10.8461 4.99907 11.3352 5.08926 11.7946 5.19953C11.6567 5.66479 11.4848 6.15117 11.2825 6.64986C11.1346 6.35451 10.9812 6.0623 10.8222 5.77341ZM8.00769 2.88782C8.32294 3.24736 8.63869 3.64874 8.94925 4.08427C8.31925 4.05294 7.6882 4.05281 7.05819 4.08387C7.36906 3.65236 7.6875 3.2515 8.00769 2.88782ZM5.17513 5.77828C5.01814 6.06485 4.86754 6.35523 4.72344 6.6492C4.52444 6.15229 4.35413 5.66367 4.21506 5.19183C4.67156 5.08433 5.15838 4.99644 5.66563 4.92973C5.49585 5.20848 5.3323 5.49145 5.17513 5.77828ZM5.68019 10.0777C5.15613 10.0161 4.662 9.93275 4.20563 9.82815C4.34688 9.34788 4.52094 8.84887 4.72425 8.3413C4.86892 8.63549 5.02015 8.92605 5.17781 9.21275C5.33994 9.50749 5.50781 9.79617 5.68019 10.0777ZM8.02656 12.1191C7.70256 11.7512 7.37944 11.3442 7.06388 10.9064C7.37025 10.9191 7.68256 10.9255 8 10.9255C8.32613 10.9255 8.6485 10.9178 8.96581 10.903C8.65425 11.3486 8.33969 11.7562 8.02656 12.1191ZM11.2889 8.31538C11.5028 8.82854 11.6831 9.32492 11.8262 9.79696C11.3623 9.90841 10.8614 9.99815 10.3337 10.0648C10.5028 9.78259 10.6666 9.49688 10.8249 9.20782C10.9858 8.91401 11.1406 8.61645 11.2889 8.31538ZM10.2328 8.84834C9.99043 9.29152 9.73444 9.72628 9.46525 10.152C8.9776 10.1883 8.48887 10.2064 8 10.2061C7.50206 10.2061 7.01775 10.1898 6.55137 10.1579C6.27513 9.73327 6.01426 9.29774 5.76931 8.85229C5.52549 8.40922 5.29783 7.95654 5.08669 7.49525C5.2973 7.03386 5.52433 6.58097 5.76731 6.13755L5.76725 6.13762C6.01011 5.69407 6.2689 5.2604 6.54306 4.83755C7.01888 4.79966 7.50681 4.77992 7.99994 4.77992C8.49531 4.77992 8.98394 4.79986 9.45963 4.83802C9.73102 5.26023 9.98816 5.69241 10.2306 6.13374C10.4743 6.5762 10.7044 7.02687 10.9203 7.48505C10.7066 7.94792 10.4773 8.40264 10.2328 8.84834ZM11.6428 0.81387C12.1786 1.13913 12.3869 2.45078 12.0503 4.17084C12.0287 4.28067 12.0048 4.39229 11.9784 4.50571C11.3146 4.3444 10.5938 4.22446 9.83906 4.14992C9.39944 3.49091 8.94388 2.89176 8.48656 2.37308C8.60642 2.25147 8.72912 2.13302 8.85456 2.01782C10.0358 0.935778 11.1398 0.508541 11.6428 0.81387ZM8 5.9742C8.78906 5.9742 9.42875 6.64755 9.42875 7.47815C9.42875 8.30874 8.78906 8.98209 8 8.98209C7.21094 8.98209 6.57125 8.30874 6.57125 7.47815C6.57125 6.64755 7.21094 5.9742 8 5.9742Z" fill="#00D8FF"/>
</svg>
