<svg width="16" height="16" viewBox="0 0 16 16" fill="none" xmlns="http://www.w3.org/2000/svg">
<path d="M8.08556 9.35009C7.84506 9.46059 7.58156 9.60458 7.05406 9.89408C6.85406 10.0066 6.64506 10.1191 6.45056 10.2251C6.43706 10.2116 6.42306 10.1946 6.40956 10.1806C5.36606 9.06559 3.43606 8.27808 3.51806 6.78058C3.54856 6.23509 3.73606 4.80308 7.22456 3.06408C10.0956 1.64908 12.3801 2.04108 12.7746 2.91058C13.3416 4.15008 11.5501 6.45658 8.58506 6.79108C8.25691 6.85761 7.918 6.84955 7.59338 6.76751C7.26875 6.68547 6.96671 6.53153 6.70956 6.31708C6.55256 6.14658 6.52906 6.13658 6.47106 6.17058C6.37556 6.22058 6.43706 6.37508 6.47106 6.46358C6.58416 6.66836 6.73717 6.84838 6.92104 6.993C7.10491 7.13762 7.31591 7.24391 7.54156 7.30558C8.70837 7.55778 9.92491 7.43728 11.0196 6.96108C12.8166 6.26558 14.2196 4.33208 13.8086 2.71108C13.3961 1.06758 10.6681 0.525585 8.08706 1.44258C6.4707 1.98728 4.97733 2.84474 3.69206 3.96608C2.27006 5.29608 2.04506 6.45208 2.13706 6.93608C2.46806 8.65458 4.83706 9.77308 5.78706 10.6016C5.73773 10.6283 5.69456 10.6521 5.65756 10.6731C5.18356 10.9086 3.37656 11.8531 2.92606 12.8521C2.41456 13.9841 3.00806 14.7956 3.40006 14.9046C3.99081 15.0462 4.61105 14.9998 5.17411 14.7717C5.73717 14.5437 6.21491 14.1454 6.54056 13.6326C6.8172 13.2074 6.98707 12.7217 7.03574 12.2168C7.0844 11.7119 7.01041 11.2028 6.82006 10.7326C6.93232 10.6429 7.0521 10.5632 7.17806 10.4941C7.42006 10.3511 7.65056 10.2101 7.85506 10.1011C8.55539 9.77351 9.31942 9.60465 10.0926 9.60658C11.7156 9.79758 12.0361 10.8101 11.9746 11.2366C11.9457 11.3879 11.8848 11.5312 11.796 11.6571C11.7072 11.7829 11.5925 11.8882 11.4596 11.9661C11.3471 12.0376 11.3096 12.0616 11.3196 12.1126C11.3331 12.1876 11.3876 12.1841 11.4831 12.1706C11.7269 12.0935 11.9417 11.9445 12.0993 11.7431C12.2569 11.5417 12.3499 11.2973 12.3661 11.0421C12.4161 10.0421 11.4626 8.94508 9.77456 8.95508C9.26919 8.95655 8.76891 9.05624 8.30156 9.24858C8.22656 9.27958 8.15373 9.31292 8.08306 9.34859L8.08556 9.35009ZM5.67306 13.2696C5.13406 13.8561 4.38406 14.0776 4.06006 13.8901C3.71006 13.6901 3.84856 12.8226 4.51006 12.2021C4.90152 11.8487 5.32501 11.5325 5.77506 11.2576C5.85356 11.2076 5.96956 11.1416 6.10906 11.0576L6.14656 11.0371L6.22856 10.9871C6.34644 11.3826 6.35712 11.8024 6.25952 12.2035C6.16191 12.6045 5.95953 12.9724 5.67306 13.2696Z" fill="#CD6799"/>
</svg>
