<svg width="16" height="16" viewBox="0 0 16 16" fill="none" xmlns="http://www.w3.org/2000/svg">
<path d="M12.1982 1.18887C14.4796 2.59812 15.9999 5.1215 15.9999 8C15.9999 12.4183 12.4181 16 7.99988 16C7.06447 16.0012 6.13616 15.8378 5.25738 15.5173L5.16613 15.4832L5.31488 15.4354L5.50612 15.3728L5.6005 15.3411L5.694 15.3096L5.8785 15.246L6.05963 15.182L6.23725 15.1176L6.41163 15.0529L6.49763 15.0203L6.66688 14.9548C6.84563 14.8848 7.01867 14.814 7.186 14.7424L7.31038 14.6885L7.46288 14.6209C7.52905 14.591 7.59502 14.5607 7.66075 14.5299L7.7575 14.4841L7.89988 14.415L7.96975 14.3804L8.03875 14.3455L8.17438 14.2755C9.31263 13.6785 10.0859 13.0299 10.4965 12.3188C11.3665 10.812 10.6066 9.20188 8.42562 7.56038L8.24813 7.42738L8.14038 7.34462L8.03575 7.26263L7.93412 7.18113L7.83575 7.10038L7.78775 7.06025L7.74038 7.02025L7.64813 6.94063L7.581 6.88138L7.51562 6.82238L7.43113 6.74438L7.34963 6.66687L7.27113 6.59013L7.23313 6.552L7.19575 6.51388L7.12338 6.43825C6.26125 5.52175 6.06875 4.73725 6.46012 4.05925C6.65937 3.71425 7.00475 3.375 7.49563 3.04463L7.55525 3.005L7.64913 2.94463C7.69163 2.91788 7.73504 2.89113 7.77938 2.86438L7.84663 2.82438L7.95038 2.76463L8.05725 2.70513L8.13963 2.66063L8.22375 2.61625L8.33887 2.55725C8.42856 2.51206 8.51886 2.46809 8.60975 2.42538L8.70375 2.38163L8.83187 2.32363L8.89713 2.29463L9.03013 2.23713L9.09788 2.20838L9.23588 2.151L9.30587 2.1225L9.44875 2.06563L9.52138 2.03725L9.66913 1.98075L9.82 1.9245L9.89663 1.89662L10.0525 1.84075L10.2115 1.78525L10.3739 1.73012L10.4563 1.70263L10.6234 1.64787L10.7939 1.59337L10.9675 1.53925L11.1444 1.48538L11.3246 1.43187L11.5544 1.36538L11.7893 1.29937L12.0778 1.22088L12.1982 1.18887ZM7.99988 0C8.97275 0 9.90512 0.17375 10.7675 0.491625L10.8596 0.52625L10.8013 0.544L10.5163 0.631875L10.423 0.661375L10.2389 0.720625L10.0581 0.7805L9.88075 0.84075L9.70675 0.9015L9.53613 0.96275L9.452 0.9935L9.2455 1.071L9.04425 1.14937L8.88688 1.2125L8.8095 1.24425L8.65725 1.30825C7.10138 1.97125 6.08175 2.71475 5.59425 3.55925C4.74313 5.03338 5.51513 6.6225 7.69625 8.2635L7.87375 8.39663L7.9815 8.47937L8.08613 8.5615L8.13737 8.60238L8.23725 8.68363L8.31 8.74413L8.38125 8.80437L8.47325 8.88425L8.51825 8.92387L8.60563 9.00275C8.65329 9.0465 8.69954 9.08996 8.74438 9.13313L8.81063 9.19763L8.906 9.29387L8.99662 9.389C9.855 10.3119 10.0385 11.1121 9.63062 11.8188C9.36662 12.276 8.86262 12.726 8.11987 13.1629L8.05163 13.2026L7.94113 13.2653L7.82738 13.3276C7.76207 13.3628 7.6964 13.3974 7.63038 13.4313L7.5285 13.4827L7.40313 13.5445L7.2745 13.606L7.14263 13.6674L7.0755 13.698L6.93863 13.7589L6.79862 13.8197L6.65525 13.8802L6.58225 13.9105L6.434 13.9706L6.35863 14.0006L6.28238 14.0306L6.1275 14.0904L5.96938 14.1499L5.808 14.2091L5.64325 14.2681L5.47538 14.3269L5.39013 14.3561L5.21725 14.4145L5.1295 14.4435L4.95175 14.5015L4.77063 14.5591L4.53975 14.6309L4.30363 14.7023L4.11112 14.7589L3.84238 14.8363C1.53838 13.4319 0 10.8956 0 8C0 3.58175 3.58162 0 7.99988 0Z" fill="#55AEFF"/>
</svg>
