<svg width="16" height="16" viewBox="0 0 16 16" fill="none" xmlns="http://www.w3.org/2000/svg">
<path d="M0 7.8125V15.625H15.625V0H0V7.8125ZM12.5913 7.1875C12.9655 7.27435 13.3056 7.47008 13.5688 7.75C13.7136 7.90082 13.8395 8.06873 13.9438 8.25C13.9438 8.27 13.2688 8.72625 12.8575 8.98125C12.8425 8.99125 12.7825 8.92625 12.7163 8.8275C12.6412 8.69796 12.5345 8.58955 12.4062 8.51239C12.2779 8.43523 12.1321 8.39183 11.9825 8.38625C11.5088 8.35375 11.2038 8.6025 11.2063 9.01125C11.2025 9.11301 11.2257 9.21395 11.2738 9.30375C11.3775 9.52 11.5713 9.64875 12.1788 9.91125C13.2975 10.3925 13.7762 10.71 14.0737 11.1612C14.4062 11.6612 14.48 12.4687 14.255 13.0662C14.005 13.7162 13.3925 14.1575 12.5262 14.3037C12.1306 14.3491 11.7309 14.3449 11.3363 14.2912C10.7315 14.1916 10.1744 13.9012 9.74625 13.4625C9.6025 13.3037 9.3225 12.89 9.34 12.86C9.38554 12.826 9.4336 12.7955 9.48375 12.7687L10.0625 12.4487L10.5112 12.1887L10.605 12.3275C10.7633 12.5538 10.9646 12.7466 11.1975 12.895C11.6975 13.1575 12.38 13.1212 12.7175 12.8175C12.8308 12.7062 12.9015 12.5587 12.9173 12.4006C12.933 12.2426 12.8929 12.084 12.8038 11.9525C12.6788 11.7787 12.4287 11.6325 11.73 11.3275C10.9237 10.98 10.5762 10.765 10.2587 10.4225C10.0606 10.1964 9.91428 9.9298 9.83 9.64125C9.76719 9.31156 9.75791 8.9739 9.8025 8.64125C9.96875 7.8625 10.5525 7.31875 11.405 7.1575C11.7998 7.10873 12.1997 7.11968 12.5913 7.19V7.1875ZM8.92375 7.8425V8.4825H6.895V14.2612H5.45625V8.48125H3.4225V7.85625C3.41612 7.64072 3.42113 7.425 3.4375 7.21C3.4475 7.19875 4.6875 7.19875 6.1875 7.19875H8.91625L8.92375 7.8425Z" fill="#007ACC"/>
</svg>
