<svg width="16" height="16" viewBox="0 0 16 16" fill="none" xmlns="http://www.w3.org/2000/svg">
<g clip-path="url(#clip0_848_343)">
<mask id="mask0_848_343" style="mask-type:alpha" maskUnits="userSpaceOnUse" x="0" y="0" width="16" height="16">
<path fill-rule="evenodd" clip-rule="evenodd" d="M11.3459 15.8908C11.4732 15.9404 11.6094 15.9633 11.746 15.958C11.8825 15.9528 12.0165 15.9195 12.1397 15.8603L15.4338 14.2751C15.6034 14.1935 15.7466 14.0656 15.8468 13.9062C15.9469 13.7468 16.0001 13.5623 16 13.374V2.62614C16.0001 2.43785 15.947 2.25336 15.8468 2.09392C15.7466 1.93448 15.6035 1.80657 15.4338 1.72489L12.1397 0.140018C11.9535 0.050456 11.7442 0.0209681 11.5405 0.055635C11.3369 0.0903019 11.1491 0.187409 11.003 0.333518L4.69679 6.08677L1.95004 4.00164C1.82612 3.90761 1.6732 3.85991 1.51779 3.8668C1.36238 3.8737 1.21428 3.93476 1.09917 4.03939L0.21817 4.84077C0.149513 4.90321 0.0946465 4.9793 0.0570791 5.06416C0.0195116 5.14903 7.07861e-05 5.2408 1.92945e-07 5.3336C-7.04002e-05 5.42641 0.0192308 5.51821 0.0566691 5.60313C0.0941074 5.68805 0.148858 5.76422 0.21742 5.82677L2.59954 8.00002L0.217545 10.1734C0.149021 10.236 0.0943025 10.3121 0.0568875 10.397C0.0194725 10.4819 0.000183783 10.5737 0.000254369 10.6665C0.000324955 10.7593 0.0197532 10.851 0.0572974 10.9359C0.0948416 11.0207 0.149676 11.0968 0.218295 11.1593L1.09929 11.9606C1.21439 12.0653 1.36248 12.1264 1.51789 12.1333C1.6733 12.1402 1.82623 12.0925 1.95017 11.9985L4.69692 9.91352L11.0032 15.6666C11.1008 15.7642 11.2174 15.8405 11.3459 15.8908ZM12.0024 4.36789L7.21755 8.00002L12.0025 11.6323L12.0024 4.36789Z" fill="white"/>
</mask>
<g mask="url(#mask0_848_343)">
<path d="M15.4338 1.72744L12.1371 0.139936C11.9509 0.0502596 11.7414 0.0207093 11.5377 0.0553787C11.3339 0.0900481 11.146 0.187221 11 0.333436L0.207707 10.1733C0.139132 10.2358 0.084367 10.312 0.0469188 10.3969C0.00947068 10.4818 -0.00983603 10.5736 -0.00976543 10.6664C-0.00969483 10.7592 0.00975152 10.851 0.0473288 10.9358C0.0849061 11.0207 0.139786 11.0968 0.208457 11.1592L1.08996 11.9606C1.20509 12.0653 1.35328 12.1265 1.5088 12.1334C1.66432 12.1403 1.81735 12.0926 1.94133 11.9984L14.9377 2.13906C15.3737 1.80831 16 2.11931 16 2.66656V2.62831C16 2.44007 15.9468 2.25565 15.8467 2.09626C15.7465 1.93687 15.6034 1.80911 15.4338 1.72744Z" fill="#0065A9"/>
<g filter="url(#filter0_d_848_343)">
<path d="M15.4338 14.2725L12.1371 15.8597C11.9509 15.9495 11.7414 15.979 11.5377 15.9444C11.334 15.9098 11.146 15.8127 11 15.6665L0.207707 5.82649C0.139132 5.76397 0.084367 5.68781 0.0469188 5.6029C0.00947068 5.51799 -0.00983603 5.42619 -0.00976543 5.33339C-0.00969483 5.24059 0.00975152 5.14882 0.0473288 5.06397C0.0849061 4.97912 0.139786 4.90304 0.208457 4.84062L1.08996 4.03924C1.20509 3.93446 1.35328 3.8733 1.5088 3.86638C1.66432 3.85946 1.81735 3.90722 1.94133 4.00137L14.9377 13.8606C15.3737 14.1915 16 13.8805 16 13.3332V13.3715C16 13.5597 15.9468 13.7442 15.8467 13.9035C15.7465 14.0629 15.6034 14.1908 15.4338 14.2725Z" fill="#007ACC"/>
</g>
<g filter="url(#filter1_d_848_343)">
<path d="M12.1372 15.8602C11.951 15.9497 11.7415 15.9791 11.5378 15.9444C11.3341 15.9098 11.1462 15.8127 11 15.6666C11.369 16.0356 12 15.7742 12 15.2523V0.747425C12 0.22555 11.369 -0.0358247 11 0.3333C11.1462 0.187199 11.3341 0.0900965 11.5378 0.0554112C11.7415 0.020726 11.951 0.0501703 12.1372 0.139675L15.4334 1.72493C15.6031 1.80655 15.7463 1.93444 15.8466 2.09388C15.9468 2.25333 16 2.43784 16 2.62618V13.3739C16 13.5623 15.9468 13.7468 15.8466 13.9062C15.7463 14.0657 15.6031 14.1936 15.4334 14.2752L12.1372 15.8602Z" fill="#1F9CF0"/>
</g>
<path opacity="0.25" fill-rule="evenodd" clip-rule="evenodd" d="M11.3362 15.8908C11.4635 15.9404 11.5997 15.9633 11.7362 15.958C11.8727 15.9528 12.0067 15.9195 12.1298 15.8603L15.424 14.2751C15.5936 14.1935 15.7368 14.0656 15.837 13.9061C15.9371 13.7467 15.9903 13.5622 15.9902 13.3739V2.62614C15.9903 2.43785 15.9371 2.25336 15.837 2.09392C15.7368 1.93448 15.5936 1.80657 15.424 1.72489L12.1298 0.140018C11.9437 0.050456 11.7343 0.0209681 11.5307 0.055635C11.3271 0.0903019 11.1392 0.187409 10.9932 0.333518L4.68697 6.08677L1.94022 4.00177C1.81629 3.90774 1.66337 3.86003 1.50796 3.86693C1.35255 3.87382 1.20445 3.93488 1.08934 4.03952L0.208344 4.84089C0.139704 4.90335 0.0848527 4.97944 0.0472964 5.0643C0.00973997 5.14916 -0.00969484 5.24093 -0.00976543 5.33373C-0.00983602 5.42653 0.00945917 5.51832 0.0468864 5.60324C0.0843137 5.68816 0.139049 5.76433 0.207594 5.82689L2.58972 8.00002L0.207719 10.1733C0.139157 10.2358 0.0844062 10.312 0.0469679 10.3969C0.00952957 10.4818 -0.00977163 10.5736 -0.00970103 10.6664C-0.00963044 10.7592 0.00981039 10.851 0.0473778 10.9359C0.0849453 11.0207 0.139812 11.0968 0.208469 11.1593L1.08947 11.9606C1.20456 12.0653 1.35265 12.1264 1.50806 12.1333C1.66347 12.1402 1.8164 12.0925 1.94034 11.9985L4.68722 9.91339L10.9935 15.6666C11.091 15.7642 11.2077 15.8405 11.3362 15.8908ZM11.9927 4.36777L7.20772 8.00002L11.9927 11.6321V4.36777Z" fill="url(#paint0_linear_848_343)"/>
</g>
</g>
<defs>
<filter id="filter0_d_848_343" x="-1.05152" y="2.82397" width="18.0933" height="14.1763" filterUnits="userSpaceOnUse" color-interpolation-filters="sRGB">
<feFlood flood-opacity="0" result="BackgroundImageFix"/>
<feColorMatrix in="SourceAlpha" type="matrix" values="0 0 0 0 0 0 0 0 0 0 0 0 0 0 0 0 0 0 127 0" result="hardAlpha"/>
<feOffset/>
<feGaussianBlur stdDeviation="0.520875"/>
<feColorMatrix type="matrix" values="0 0 0 0 0 0 0 0 0 0 0 0 0 0 0 0 0 0 0.25 0"/>
<feBlend mode="overlay" in2="BackgroundImageFix" result="effect1_dropShadow_848_343"/>
<feBlend mode="normal" in="SourceGraphic" in2="effect1_dropShadow_848_343" result="shape"/>
</filter>
<filter id="filter1_d_848_343" x="9.95825" y="-1.00049" width="7.0835" height="18.0007" filterUnits="userSpaceOnUse" color-interpolation-filters="sRGB">
<feFlood flood-opacity="0" result="BackgroundImageFix"/>
<feColorMatrix in="SourceAlpha" type="matrix" values="0 0 0 0 0 0 0 0 0 0 0 0 0 0 0 0 0 0 127 0" result="hardAlpha"/>
<feOffset/>
<feGaussianBlur stdDeviation="0.520875"/>
<feColorMatrix type="matrix" values="0 0 0 0 0 0 0 0 0 0 0 0 0 0 0 0 0 0 0.25 0"/>
<feBlend mode="overlay" in2="BackgroundImageFix" result="effect1_dropShadow_848_343"/>
<feBlend mode="normal" in="SourceGraphic" in2="effect1_dropShadow_848_343" result="shape"/>
</filter>
<linearGradient id="paint0_linear_848_343" x1="7.99022" y1="0.0412678" x2="7.99022" y2="15.9588" gradientUnits="userSpaceOnUse">
<stop stop-color="white"/>
<stop offset="1" stop-color="white" stop-opacity="0"/>
</linearGradient>
<clipPath id="clip0_848_343">
<rect width="16" height="16" fill="white"/>
</clipPath>
</defs>
</svg>
