<svg width="14" height="14" viewBox="0 0 14 14" fill="none" xmlns="http://www.w3.org/2000/svg">
<path d="M0.5 7C0.5 5.27609 1.18482 3.62279 2.40381 2.40381C3.62279 1.18482 5.27609 0.5 7 0.5C8.72391 0.5 10.3772 1.18482 11.5962 2.40381C12.8152 3.62279 13.5 5.27609 13.5 7C13.5 8.72391 12.8152 10.3772 11.5962 11.5962C10.3772 12.8152 8.72391 13.5 7 13.5C5.27609 13.5 3.62279 12.8152 2.40381 11.5962C1.18482 10.3772 0.5 8.72391 0.5 7ZM13.5 7H0.5" stroke="white" stroke-linecap="round" stroke-linejoin="round"/>
<path d="M7 13.5C8.50168 11.6533 9.3772 9.37699 9.5 7C9.3772 4.62301 8.50168 2.34665 7 0.5C5.49832 2.34665 4.6228 4.62301 4.5 7C4.6228 9.37699 5.49832 11.6533 7 13.5Z" stroke="white" stroke-linecap="round" stroke-linejoin="round"/>
</svg>
